<mxfile host="app.diagrams.net" modified="2023-11-24T22:39:16.139Z" agent="Mozilla/5.0 (Macintosh; Intel Mac OS X 10_15_7) AppleWebKit/537.36 (KHTML, like Gecko) Chrome/119.0.0.0 Safari/537.36" etag="9CJATVD3kJ5DqtitcZg2" version="22.1.4" type="device">
  <diagram id="AIra0pvackN1RxZxVPas" name="Page-1">
    <mxGraphModel dx="1010" dy="1679" grid="1" gridSize="10" guides="1" tooltips="1" connect="1" arrows="1" fold="1" page="1" pageScale="1" pageWidth="850" pageHeight="1100" math="0" shadow="0">
      <root>
        <mxCell id="0" />
        <mxCell id="1" parent="0" />
        <mxCell id="b4ZN2M5RfPYAqQMjHC3d-15" style="edgeStyle=orthogonalEdgeStyle;rounded=0;orthogonalLoop=1;jettySize=auto;html=1;strokeColor=#010103;" parent="1" source="b4ZN2M5RfPYAqQMjHC3d-1" target="b4ZN2M5RfPYAqQMjHC3d-3" edge="1">
          <mxGeometry relative="1" as="geometry" />
        </mxCell>
        <mxCell id="b4ZN2M5RfPYAqQMjHC3d-1" value="frontend&lt;br&gt;8080" style="ellipse;whiteSpace=wrap;html=1;aspect=fixed;" parent="1" vertex="1">
          <mxGeometry x="370" y="-140" width="80" height="80" as="geometry" />
        </mxCell>
        <mxCell id="b4ZN2M5RfPYAqQMjHC3d-24" style="edgeStyle=orthogonalEdgeStyle;rounded=0;orthogonalLoop=1;jettySize=auto;html=1;exitX=0;exitY=1;exitDx=0;exitDy=0;strokeColor=#010103;" parent="1" source="b4ZN2M5RfPYAqQMjHC3d-3" target="b4ZN2M5RfPYAqQMjHC3d-9" edge="1">
          <mxGeometry relative="1" as="geometry" />
        </mxCell>
        <mxCell id="b4ZN2M5RfPYAqQMjHC3d-25" style="edgeStyle=orthogonalEdgeStyle;rounded=0;orthogonalLoop=1;jettySize=auto;html=1;entryX=0.5;entryY=0;entryDx=0;entryDy=0;strokeColor=#010103;" parent="1" source="b4ZN2M5RfPYAqQMjHC3d-3" target="b4ZN2M5RfPYAqQMjHC3d-12" edge="1">
          <mxGeometry relative="1" as="geometry" />
        </mxCell>
        <mxCell id="b4ZN2M5RfPYAqQMjHC3d-26" style="edgeStyle=orthogonalEdgeStyle;rounded=0;orthogonalLoop=1;jettySize=auto;html=1;exitX=1;exitY=0.5;exitDx=0;exitDy=0;strokeColor=#010103;" parent="1" source="b4ZN2M5RfPYAqQMjHC3d-3" target="b4ZN2M5RfPYAqQMjHC3d-13" edge="1">
          <mxGeometry relative="1" as="geometry" />
        </mxCell>
        <mxCell id="b4ZN2M5RfPYAqQMjHC3d-27" style="edgeStyle=orthogonalEdgeStyle;rounded=0;orthogonalLoop=1;jettySize=auto;html=1;exitX=1;exitY=0;exitDx=0;exitDy=0;strokeColor=#010103;entryX=-0.012;entryY=0.4;entryDx=0;entryDy=0;entryPerimeter=0;" parent="1" source="b4ZN2M5RfPYAqQMjHC3d-3" target="b4ZN2M5RfPYAqQMjHC3d-8" edge="1">
          <mxGeometry relative="1" as="geometry">
            <Array as="points">
              <mxPoint x="490" y="82" />
            </Array>
          </mxGeometry>
        </mxCell>
        <mxCell id="b4ZN2M5RfPYAqQMjHC3d-3" value="backend&lt;br&gt;8080" style="ellipse;whiteSpace=wrap;html=1;aspect=fixed;" parent="1" vertex="1">
          <mxGeometry x="370" y="70" width="80" height="80" as="geometry" />
        </mxCell>
        <mxCell id="b4ZN2M5RfPYAqQMjHC3d-34" style="edgeStyle=orthogonalEdgeStyle;rounded=0;orthogonalLoop=1;jettySize=auto;html=1;entryX=0;entryY=0;entryDx=0;entryDy=0;fontColor=#FF9999;strokeColor=#010103;" parent="1" source="b4ZN2M5RfPYAqQMjHC3d-4" target="b4ZN2M5RfPYAqQMjHC3d-9" edge="1">
          <mxGeometry relative="1" as="geometry" />
        </mxCell>
        <mxCell id="b4ZN2M5RfPYAqQMjHC3d-4" value="notification-server&lt;br&gt;8080" style="ellipse;whiteSpace=wrap;html=1;aspect=fixed;" parent="1" vertex="1">
          <mxGeometry x="570" y="-200" width="80" height="80" as="geometry" />
        </mxCell>
        <mxCell id="b4ZN2M5RfPYAqQMjHC3d-28" style="edgeStyle=orthogonalEdgeStyle;rounded=0;orthogonalLoop=1;jettySize=auto;html=1;entryX=1;entryY=1;entryDx=0;entryDy=0;strokeColor=#010103;" parent="1" source="b4ZN2M5RfPYAqQMjHC3d-5" target="b4ZN2M5RfPYAqQMjHC3d-9" edge="1">
          <mxGeometry relative="1" as="geometry" />
        </mxCell>
        <mxCell id="b4ZN2M5RfPYAqQMjHC3d-29" style="edgeStyle=orthogonalEdgeStyle;rounded=0;orthogonalLoop=1;jettySize=auto;html=1;entryX=1;entryY=1;entryDx=0;entryDy=0;exitX=0;exitY=1;exitDx=0;exitDy=0;strokeColor=#010103;" parent="1" source="b4ZN2M5RfPYAqQMjHC3d-5" target="b4ZN2M5RfPYAqQMjHC3d-13" edge="1">
          <mxGeometry relative="1" as="geometry" />
        </mxCell>
        <mxCell id="b4ZN2M5RfPYAqQMjHC3d-30" style="edgeStyle=orthogonalEdgeStyle;rounded=0;orthogonalLoop=1;jettySize=auto;html=1;entryX=1;entryY=1;entryDx=0;entryDy=0;exitX=0;exitY=0;exitDx=0;exitDy=0;strokeColor=#010103;" parent="1" source="b4ZN2M5RfPYAqQMjHC3d-5" target="b4ZN2M5RfPYAqQMjHC3d-8" edge="1">
          <mxGeometry relative="1" as="geometry" />
        </mxCell>
        <mxCell id="b4ZN2M5RfPYAqQMjHC3d-5" value="celery" style="ellipse;whiteSpace=wrap;html=1;aspect=fixed;" parent="1" vertex="1">
          <mxGeometry x="770" y="370" width="80" height="80" as="geometry" />
        </mxCell>
        <mxCell id="b4ZN2M5RfPYAqQMjHC3d-36" style="edgeStyle=orthogonalEdgeStyle;rounded=0;orthogonalLoop=1;jettySize=auto;html=1;strokeColor=#010103;" parent="1" source="b4ZN2M5RfPYAqQMjHC3d-6" target="b4ZN2M5RfPYAqQMjHC3d-12" edge="1">
          <mxGeometry relative="1" as="geometry" />
        </mxCell>
        <mxCell id="b4ZN2M5RfPYAqQMjHC3d-37" style="edgeStyle=orthogonalEdgeStyle;rounded=0;orthogonalLoop=1;jettySize=auto;html=1;entryX=0;entryY=1;entryDx=0;entryDy=0;exitX=0;exitY=1;exitDx=0;exitDy=0;strokeColor=#010103;" parent="1" source="b4ZN2M5RfPYAqQMjHC3d-6" target="b4ZN2M5RfPYAqQMjHC3d-9" edge="1">
          <mxGeometry relative="1" as="geometry" />
        </mxCell>
        <mxCell id="b4ZN2M5RfPYAqQMjHC3d-38" style="edgeStyle=orthogonalEdgeStyle;rounded=0;orthogonalLoop=1;jettySize=auto;html=1;entryX=0;entryY=1;entryDx=0;entryDy=0;exitX=0;exitY=0;exitDx=0;exitDy=0;strokeColor=#010103;" parent="1" source="b4ZN2M5RfPYAqQMjHC3d-6" target="b4ZN2M5RfPYAqQMjHC3d-13" edge="1">
          <mxGeometry relative="1" as="geometry" />
        </mxCell>
        <mxCell id="b4ZN2M5RfPYAqQMjHC3d-6" value="scan-coordinator" style="ellipse;whiteSpace=wrap;html=1;aspect=fixed;" parent="1" vertex="1">
          <mxGeometry x="770" y="510" width="80" height="80" as="geometry" />
        </mxCell>
        <mxCell id="b4ZN2M5RfPYAqQMjHC3d-39" style="edgeStyle=orthogonalEdgeStyle;rounded=0;orthogonalLoop=1;jettySize=auto;html=1;entryX=1;entryY=0;entryDx=0;entryDy=0;strokeColor=#010103;" parent="1" source="b4ZN2M5RfPYAqQMjHC3d-7" target="b4ZN2M5RfPYAqQMjHC3d-9" edge="1">
          <mxGeometry relative="1" as="geometry" />
        </mxCell>
        <mxCell id="b4ZN2M5RfPYAqQMjHC3d-40" style="edgeStyle=orthogonalEdgeStyle;rounded=0;orthogonalLoop=1;jettySize=auto;html=1;entryX=0;entryY=0;entryDx=0;entryDy=0;exitX=0;exitY=0;exitDx=0;exitDy=0;strokeColor=#010103;" parent="1" source="b4ZN2M5RfPYAqQMjHC3d-7" target="b4ZN2M5RfPYAqQMjHC3d-8" edge="1">
          <mxGeometry relative="1" as="geometry" />
        </mxCell>
        <mxCell id="b4ZN2M5RfPYAqQMjHC3d-7" value="scan-handler" style="ellipse;whiteSpace=wrap;html=1;aspect=fixed;" parent="1" vertex="1">
          <mxGeometry x="730" y="-40" width="90" height="90" as="geometry" />
        </mxCell>
        <mxCell id="b4ZN2M5RfPYAqQMjHC3d-8" value="&lt;font color=&quot;#ff0000&quot;&gt;&lt;b&gt;tfrs-crundhy&lt;br&gt;&lt;/b&gt;&lt;/font&gt;5432" style="ellipse;whiteSpace=wrap;html=1;aspect=fixed;" parent="1" vertex="1">
          <mxGeometry x="490" y="200" width="80" height="80" as="geometry" />
        </mxCell>
        <mxCell id="b4ZN2M5RfPYAqQMjHC3d-9" value="&lt;font color=&quot;#ff0d2d&quot;&gt;&lt;b&gt;tfrs-&lt;/b&gt;&lt;/font&gt;&lt;br&gt;rabbitmq&lt;br&gt;5672&lt;br&gt;15672" style="ellipse;whiteSpace=wrap;html=1;aspect=fixed;" parent="1" vertex="1">
          <mxGeometry x="210" y="200" width="80" height="80" as="geometry" />
        </mxCell>
        <mxCell id="b4ZN2M5RfPYAqQMjHC3d-12" value="&lt;b&gt;&lt;font color=&quot;#ff0d1d&quot;&gt;tfrs-&lt;/font&gt;&lt;/b&gt;&lt;br&gt;clamav&lt;br&gt;3310" style="ellipse;whiteSpace=wrap;html=1;aspect=fixed;" parent="1" vertex="1">
          <mxGeometry x="370" y="220" width="80" height="80" as="geometry" />
        </mxCell>
        <mxCell id="b4ZN2M5RfPYAqQMjHC3d-13" value="minio&lt;br&gt;9000" style="ellipse;whiteSpace=wrap;html=1;aspect=fixed;" parent="1" vertex="1">
          <mxGeometry x="630" y="150" width="80" height="80" as="geometry" />
        </mxCell>
        <mxCell id="pgLxdiH6ygsnpkbSBO9J-1" style="edgeStyle=orthogonalEdgeStyle;rounded=0;orthogonalLoop=1;jettySize=auto;html=1;entryX=0;entryY=0.5;entryDx=0;entryDy=0;exitX=0.5;exitY=0;exitDx=0;exitDy=0;strokeColor=#66FF66;" parent="1" source="b4ZN2M5RfPYAqQMjHC3d-20" target="b4ZN2M5RfPYAqQMjHC3d-1" edge="1">
          <mxGeometry relative="1" as="geometry" />
        </mxCell>
        <mxCell id="pgLxdiH6ygsnpkbSBO9J-2" style="edgeStyle=orthogonalEdgeStyle;rounded=0;orthogonalLoop=1;jettySize=auto;html=1;strokeColor=#66FF66;" parent="1" source="b4ZN2M5RfPYAqQMjHC3d-20" target="b4ZN2M5RfPYAqQMjHC3d-3" edge="1">
          <mxGeometry relative="1" as="geometry" />
        </mxCell>
        <mxCell id="pgLxdiH6ygsnpkbSBO9J-3" style="edgeStyle=orthogonalEdgeStyle;rounded=0;orthogonalLoop=1;jettySize=auto;html=1;entryX=0;entryY=0.5;entryDx=0;entryDy=0;exitX=1;exitY=1;exitDx=0;exitDy=0;strokeColor=#66FF66;" parent="1" source="b4ZN2M5RfPYAqQMjHC3d-20" target="b4ZN2M5RfPYAqQMjHC3d-9" edge="1">
          <mxGeometry relative="1" as="geometry">
            <Array as="points">
              <mxPoint x="120" y="138" />
              <mxPoint x="120" y="240" />
            </Array>
          </mxGeometry>
        </mxCell>
        <mxCell id="b4ZN2M5RfPYAqQMjHC3d-20" value="external" style="ellipse;whiteSpace=wrap;html=1;aspect=fixed;" parent="1" vertex="1">
          <mxGeometry x="50" y="70" width="80" height="80" as="geometry" />
        </mxCell>
        <mxCell id="pgLxdiH6ygsnpkbSBO9J-5" style="edgeStyle=orthogonalEdgeStyle;rounded=0;orthogonalLoop=1;jettySize=auto;html=1;exitX=0;exitY=1;exitDx=0;exitDy=0;entryX=1;entryY=0.5;entryDx=0;entryDy=0;strokeColor=#66FF66;" parent="1" source="b4ZN2M5RfPYAqQMjHC3d-31" target="b4ZN2M5RfPYAqQMjHC3d-13" edge="1">
          <mxGeometry relative="1" as="geometry" />
        </mxCell>
        <mxCell id="XpymMQoJ-1M2_j4llE61-1" style="edgeStyle=orthogonalEdgeStyle;rounded=0;orthogonalLoop=1;jettySize=auto;html=1;entryX=1;entryY=0.5;entryDx=0;entryDy=0;fillColor=#d5e8d4;strokeColor=#82B366;" edge="1" parent="1" source="b4ZN2M5RfPYAqQMjHC3d-31" target="b4ZN2M5RfPYAqQMjHC3d-4">
          <mxGeometry relative="1" as="geometry">
            <Array as="points">
              <mxPoint x="1020" y="150" />
              <mxPoint x="1020" y="-160" />
            </Array>
          </mxGeometry>
        </mxCell>
        <mxCell id="b4ZN2M5RfPYAqQMjHC3d-31" value="external" style="ellipse;whiteSpace=wrap;html=1;aspect=fixed;" parent="1" vertex="1">
          <mxGeometry x="870" y="110" width="80" height="80" as="geometry" />
        </mxCell>
        <mxCell id="9xZVyRgoyZn5UuLwTAI5-3" value="" style="curved=1;endArrow=classic;html=1;exitX=1;exitY=0.5;exitDx=0;exitDy=0;entryX=1;entryY=0;entryDx=0;entryDy=0;strokeColor=#010103;" parent="1" source="b4ZN2M5RfPYAqQMjHC3d-8" target="b4ZN2M5RfPYAqQMjHC3d-8" edge="1">
          <mxGeometry width="50" height="50" relative="1" as="geometry">
            <mxPoint x="590" y="200" as="sourcePoint" />
            <mxPoint x="560" y="206" as="targetPoint" />
            <Array as="points">
              <mxPoint x="640" y="200" />
              <mxPoint x="590" y="150" />
            </Array>
          </mxGeometry>
        </mxCell>
        <mxCell id="TpIYyvDH98pf62Lulv5z-4" value="8008" style="edgeLabel;html=1;align=center;verticalAlign=middle;resizable=0;points=[];" parent="9xZVyRgoyZn5UuLwTAI5-3" vertex="1" connectable="0">
          <mxGeometry x="0.1086" y="-1" relative="1" as="geometry">
            <mxPoint as="offset" />
          </mxGeometry>
        </mxCell>
        <mxCell id="9xZVyRgoyZn5UuLwTAI5-6" value="" style="curved=1;endArrow=classic;html=1;exitX=1;exitY=0.5;exitDx=0;exitDy=0;entryX=1;entryY=0;entryDx=0;entryDy=0;strokeColor=#010103;" parent="1" source="b4ZN2M5RfPYAqQMjHC3d-9" target="b4ZN2M5RfPYAqQMjHC3d-9" edge="1">
          <mxGeometry width="50" height="50" relative="1" as="geometry">
            <mxPoint x="317.5" y="230" as="sourcePoint" />
            <mxPoint x="367.5" y="180" as="targetPoint" />
            <Array as="points">
              <mxPoint x="367.5" y="230" />
              <mxPoint x="317.5" y="180" />
            </Array>
          </mxGeometry>
        </mxCell>
        <mxCell id="26xIs32zcnkwmKCk1weU-3" value="&lt;span&gt;app.kubernetes.io/instance: tfrs-spilo&lt;br&gt;&lt;/span&gt;" style="text;html=1;strokeColor=none;fillColor=none;align=center;verticalAlign=middle;whiteSpace=wrap;rounded=0;fontStyle=0" parent="1" vertex="1">
          <mxGeometry x="445" y="290" width="170" height="20" as="geometry" />
        </mxCell>
        <mxCell id="26xIs32zcnkwmKCk1weU-4" value="name: tfrs-backend-dev-557" style="text;html=1;strokeColor=none;fillColor=none;align=center;verticalAlign=middle;whiteSpace=wrap;rounded=0;" parent="1" vertex="1">
          <mxGeometry x="340" y="160" width="160" height="20" as="geometry" />
        </mxCell>
        <mxCell id="26xIs32zcnkwmKCk1weU-5" value="name: tfrs-celery-dev-557" style="text;html=1;strokeColor=none;fillColor=none;align=center;verticalAlign=middle;whiteSpace=wrap;rounded=0;" parent="1" vertex="1">
          <mxGeometry x="750" y="450" width="150" height="20" as="geometry" />
        </mxCell>
        <mxCell id="26xIs32zcnkwmKCk1weU-6" value="app.kubernetes.io/instance: tfrs-clamav" style="text;html=1;strokeColor=none;fillColor=none;align=center;verticalAlign=middle;whiteSpace=wrap;rounded=0;" parent="1" vertex="1">
          <mxGeometry x="320" y="310" width="160" height="40" as="geometry" />
        </mxCell>
        <mxCell id="26xIs32zcnkwmKCk1weU-7" value="name: tfrs-frontend-dev-557" style="text;html=1;strokeColor=none;fillColor=none;align=center;verticalAlign=middle;whiteSpace=wrap;rounded=0;" parent="1" vertex="1">
          <mxGeometry x="345" y="-60" width="160" height="20" as="geometry" />
        </mxCell>
        <mxCell id="26xIs32zcnkwmKCk1weU-8" value="name: tfrs-scan-coordinator-dev-557" style="text;html=1;strokeColor=none;fillColor=none;align=center;verticalAlign=middle;whiteSpace=wrap;rounded=0;fontColor=#010103;" parent="1" vertex="1">
          <mxGeometry x="715" y="600" width="220" height="20" as="geometry" />
        </mxCell>
        <mxCell id="26xIs32zcnkwmKCk1weU-9" value="name: tfrs-scan-handler-dev-557" style="text;html=1;strokeColor=none;fillColor=none;align=center;verticalAlign=middle;whiteSpace=wrap;rounded=0;fontColor=#010103;" parent="1" vertex="1">
          <mxGeometry x="820" y="-5" width="190" height="20" as="geometry" />
        </mxCell>
        <mxCell id="26xIs32zcnkwmKCk1weU-10" value="name: tfrs-notification-server-dev-557" style="text;html=1;strokeColor=none;fillColor=none;align=center;verticalAlign=middle;whiteSpace=wrap;rounded=0;fontColor=#010103;" parent="1" vertex="1">
          <mxGeometry x="530" y="-120" width="220" height="20" as="geometry" />
        </mxCell>
        <mxCell id="26xIs32zcnkwmKCk1weU-11" value="name: tfrs-minio-test" style="text;html=1;strokeColor=none;fillColor=none;align=center;verticalAlign=middle;whiteSpace=wrap;rounded=0;fontColor=#010103;" parent="1" vertex="1">
          <mxGeometry x="700" y="210" width="130" height="20" as="geometry" />
        </mxCell>
        <mxCell id="26xIs32zcnkwmKCk1weU-13" value="app.kubernetes.io/instance: tfrs-rabbitmq" style="text;html=1;strokeColor=none;fillColor=none;align=center;verticalAlign=middle;whiteSpace=wrap;rounded=0;fontColor=#010103;" parent="1" vertex="1">
          <mxGeometry x="140" y="290" width="230" height="20" as="geometry" />
        </mxCell>
        <mxCell id="gmE44eMTJBUa2ZcFal81-3" style="edgeStyle=orthogonalEdgeStyle;rounded=0;orthogonalLoop=1;jettySize=auto;html=1;entryX=0.5;entryY=0;entryDx=0;entryDy=0;" parent="1" source="gmE44eMTJBUa2ZcFal81-1" target="b4ZN2M5RfPYAqQMjHC3d-8" edge="1">
          <mxGeometry relative="1" as="geometry" />
        </mxCell>
        <mxCell id="gmE44eMTJBUa2ZcFal81-1" value="backendmid" style="ellipse;whiteSpace=wrap;html=1;aspect=fixed;" parent="1" vertex="1">
          <mxGeometry x="575" y="10" width="70" height="70" as="geometry" />
        </mxCell>
        <mxCell id="gmE44eMTJBUa2ZcFal81-4" value="openshift.io/deployer-pod.type: hook-mid" style="text;html=1;strokeColor=none;fillColor=none;align=center;verticalAlign=middle;whiteSpace=wrap;rounded=0;" parent="1" vertex="1">
          <mxGeometry x="540" y="80" width="230" height="20" as="geometry" />
        </mxCell>
        <mxCell id="TpIYyvDH98pf62Lulv5z-2" style="edgeStyle=orthogonalEdgeStyle;rounded=0;orthogonalLoop=1;jettySize=auto;html=1;entryX=0;entryY=0.5;entryDx=0;entryDy=0;" parent="1" source="TpIYyvDH98pf62Lulv5z-1" target="b4ZN2M5RfPYAqQMjHC3d-8" edge="1">
          <mxGeometry relative="1" as="geometry" />
        </mxCell>
        <mxCell id="TpIYyvDH98pf62Lulv5z-1" value="Metabase&lt;br&gt;CTHUB" style="ellipse;whiteSpace=wrap;html=1;aspect=fixed;" parent="1" vertex="1">
          <mxGeometry x="425" y="610" width="90" height="90" as="geometry" />
        </mxCell>
        <mxCell id="TpIYyvDH98pf62Lulv5z-3" value="&lt;div&gt;- namespaceSelector:&lt;/div&gt;&lt;div&gt;&amp;nbsp; &amp;nbsp; matchLabels:&lt;/div&gt;&lt;div&gt;&amp;nbsp; &amp;nbsp; &amp;nbsp; &amp;nbsp; name: 30b186&lt;/div&gt;&lt;div&gt;&amp;nbsp; &amp;nbsp; &amp;nbsp; &amp;nbsp; environment: ${ENVIRONMENT}&lt;/div&gt;&lt;div&gt;- podSelector:&lt;/div&gt;&lt;div&gt;&amp;nbsp; &amp;nbsp; matchLabels:&lt;/div&gt;&lt;div&gt;&amp;nbsp; &amp;nbsp; &amp;nbsp; &amp;nbsp; app: metabase&lt;/div&gt;" style="text;html=1;strokeColor=none;fillColor=none;align=left;verticalAlign=middle;whiteSpace=wrap;rounded=0;fontColor=#010103;" parent="1" vertex="1">
          <mxGeometry x="420" y="710" width="220" height="110" as="geometry" />
        </mxCell>
        <mxCell id="XpymMQoJ-1M2_j4llE61-5" style="edgeStyle=orthogonalEdgeStyle;rounded=0;orthogonalLoop=1;jettySize=auto;html=1;exitX=0;exitY=0.5;exitDx=0;exitDy=0;entryX=1;entryY=0.5;entryDx=0;entryDy=0;" edge="1" parent="1" source="XpymMQoJ-1M2_j4llE61-3" target="b4ZN2M5RfPYAqQMjHC3d-8">
          <mxGeometry relative="1" as="geometry">
            <Array as="points">
              <mxPoint x="720" y="360" />
              <mxPoint x="720" y="270" />
              <mxPoint x="570" y="270" />
            </Array>
          </mxGeometry>
        </mxCell>
        <mxCell id="XpymMQoJ-1M2_j4llE61-3" value="Superset" style="ellipse;whiteSpace=wrap;html=1;aspect=fixed;" vertex="1" parent="1">
          <mxGeometry x="870" y="320" width="80" height="80" as="geometry" />
        </mxCell>
        <mxCell id="XpymMQoJ-1M2_j4llE61-7" style="edgeStyle=orthogonalEdgeStyle;rounded=0;orthogonalLoop=1;jettySize=auto;html=1;exitX=0;exitY=0.5;exitDx=0;exitDy=0;" edge="1" parent="1" source="XpymMQoJ-1M2_j4llE61-6">
          <mxGeometry relative="1" as="geometry">
            <mxPoint x="570" y="240" as="targetPoint" />
            <Array as="points">
              <mxPoint x="721" y="263" />
              <mxPoint x="721" y="241" />
            </Array>
          </mxGeometry>
        </mxCell>
        <mxCell id="XpymMQoJ-1M2_j4llE61-6" value="crunchy-prometheus" style="ellipse;whiteSpace=wrap;html=1;aspect=fixed;" vertex="1" parent="1">
          <mxGeometry x="870" y="220" width="85" height="85" as="geometry" />
        </mxCell>
        <mxCell id="XpymMQoJ-1M2_j4llE61-9" style="edgeStyle=orthogonalEdgeStyle;rounded=0;orthogonalLoop=1;jettySize=auto;html=1;exitX=0.5;exitY=0;exitDx=0;exitDy=0;entryX=0.5;entryY=1;entryDx=0;entryDy=0;" edge="1" parent="1" source="XpymMQoJ-1M2_j4llE61-8" target="b4ZN2M5RfPYAqQMjHC3d-8">
          <mxGeometry relative="1" as="geometry" />
        </mxCell>
        <mxCell id="XpymMQoJ-1M2_j4llE61-8" value="Backup Cron" style="ellipse;whiteSpace=wrap;html=1;aspect=fixed;" vertex="1" parent="1">
          <mxGeometry x="490" y="430" width="80" height="80" as="geometry" />
        </mxCell>
      </root>
    </mxGraphModel>
  </diagram>
</mxfile>
